<svg width="78" height="80" viewBox="0 0 78 80" fill="none" xmlns="http://www.w3.org/2000/svg">
<path d="M39.1531 55.8933C38.7296 55.8933 38.3383 55.8115 37.979 55.645C37.6286 55.4727 37.3482 55.2274 37.1379 54.9119L37.2781 54.6316V55.7618H35.9551V47.6105H37.3657V51.0655L37.1496 50.7735C37.3511 50.458 37.6227 50.2127 37.9674 50.0404C38.312 49.8622 38.7092 49.7717 39.1619 49.7717C39.7139 49.7717 40.2133 49.909 40.6572 50.1806C41.1011 50.4522 41.4545 50.8202 41.7115 51.2787C41.9773 51.7373 42.1087 52.2542 42.1087 52.8296C42.1087 53.4049 41.9802 53.9131 41.7203 54.3804C41.4633 54.8477 41.1099 55.2157 40.666 55.4902C40.222 55.756 39.7139 55.8874 39.1473 55.8874L39.1531 55.8933ZM38.9896 54.6024C39.3137 54.6024 39.6 54.5264 39.8511 54.3775C40.1023 54.2256 40.2951 54.0182 40.4323 53.7525C40.5754 53.4867 40.6485 53.183 40.6485 52.8383C40.6485 52.4937 40.5754 52.1929 40.4323 51.9329C40.2951 51.6672 40.1023 51.4598 39.8511 51.3079C39.6 51.1502 39.3137 51.0714 38.9896 51.0714C38.6654 51.0714 38.3996 51.1473 38.1484 51.2962C37.9031 51.4481 37.7103 51.6584 37.5672 51.9329C37.43 52.1987 37.3628 52.4995 37.3628 52.8383C37.3628 53.1771 37.43 53.4867 37.5672 53.7525C37.7103 54.0182 37.9031 54.2256 38.1484 54.3775C38.3996 54.5293 38.68 54.6024 38.9896 54.6024Z" fill="#203079"/>
<path d="M31.6616 55.893C31.2089 55.893 30.8146 55.7937 30.4758 55.5922C30.1458 55.3907 29.8917 55.1103 29.7106 54.7511C29.5383 54.3918 29.4536 53.9713 29.4536 53.4923V49.9058H30.8643V53.3725C30.8643 53.6179 30.911 53.8311 31.0044 54.018C31.1037 54.1962 31.2439 54.3422 31.425 54.4473C31.6119 54.5466 31.8193 54.5992 32.05 54.5992C32.2807 54.5992 32.4852 54.5495 32.6633 54.4473C32.8444 54.3393 32.9817 54.1932 33.0839 54.0063C33.1832 53.8194 33.2358 53.5974 33.2358 53.3375V49.9029H34.6464V55.7587H33.3117V54.608L33.4314 54.8124C33.2942 55.1716 33.0693 55.4403 32.7539 55.6214C32.4443 55.7996 32.0821 55.8901 31.6674 55.8901L31.6616 55.893Z" fill="#203079"/>
<path d="M26.8599 55.7646V47.6133H28.2705V55.7646H26.8599Z" fill="#203079"/>
<path d="M22.4094 55.8932C21.834 55.8932 21.3054 55.7881 20.8147 55.5807C20.3329 55.3734 19.9094 55.0813 19.5443 54.7075C19.1851 54.3337 18.9047 53.8956 18.7032 53.3932C18.5016 52.8909 18.4023 52.3418 18.4023 51.746C18.4023 51.1502 18.4987 50.6012 18.6944 50.0988C18.8959 49.5877 19.1763 49.1525 19.5355 48.7845C19.9006 48.4107 20.3299 48.1245 20.8177 47.923C21.3054 47.7156 21.8369 47.6105 22.4123 47.6105C22.9877 47.6105 23.4988 47.7069 23.9515 47.9025C24.41 48.0953 24.7984 48.3552 25.1138 48.6765C25.4293 48.9919 25.6571 49.3395 25.7914 49.7221L24.4772 50.3354C24.3253 49.9323 24.0712 49.6023 23.712 49.3453C23.3527 49.0795 22.9176 48.9481 22.4094 48.9481C21.9012 48.9481 21.4631 49.0678 21.0747 49.3044C20.695 49.541 20.3971 49.8681 20.181 50.2857C19.9736 50.7034 19.8685 51.1911 19.8685 51.7489C19.8685 52.3068 19.9736 52.8004 20.181 53.2238C20.3971 53.6415 20.695 53.9657 21.0747 54.2052C21.4631 54.4417 21.907 54.5615 22.4094 54.5615C22.9117 54.5615 23.3527 54.433 23.712 54.173C24.0712 53.9073 24.3253 53.5743 24.4772 53.1713L25.7914 53.7846C25.6542 54.1643 25.4293 54.5177 25.1138 54.8389C24.7984 55.1543 24.41 55.4084 23.9515 55.6041C23.4988 55.7969 22.9847 55.8962 22.4123 55.8962L22.4094 55.8932Z" fill="#203079"/>
<path d="M61.323 44.6457C60.698 44.6457 60.1519 44.4996 59.6875 44.2047C59.229 43.9038 58.9135 43.4979 58.7412 42.9868L59.7955 42.4815C59.9474 42.8115 60.1548 43.0715 60.4205 43.2555C60.6922 43.4424 60.9959 43.5358 61.3259 43.5358C61.5829 43.5358 61.7903 43.4774 61.9392 43.3635C62.0911 43.2496 62.1641 43.0978 62.1641 42.9108C62.1641 42.7969 62.132 42.7035 62.0678 42.6305C62.0093 42.5516 61.9276 42.4874 61.8195 42.4377C61.7202 42.3793 61.6063 42.3326 61.4866 42.2975L60.5286 42.0288C60.0321 41.8857 59.6554 41.6667 59.3983 41.3717C59.1472 41.0767 59.0216 40.7292 59.0216 40.3261C59.0216 39.9669 59.1121 39.6544 59.2903 39.3886C59.4772 39.117 59.7313 38.9038 60.0555 38.7549C60.3855 38.603 60.7623 38.53 61.1857 38.53C61.7377 38.53 62.2255 38.6614 62.649 38.9272C63.0724 39.1929 63.3733 39.5668 63.5543 40.0458L62.4766 40.551C62.3773 40.2852 62.2079 40.075 61.9714 39.9172C61.7348 39.7595 61.469 39.6807 61.1741 39.6807C60.9375 39.6807 60.7506 39.7333 60.6133 39.8413C60.476 39.9494 60.4089 40.0896 60.4089 40.2619C60.4089 40.3699 60.4381 40.4634 60.4936 40.5423C60.552 40.6211 60.6308 40.6854 60.7301 40.735C60.8382 40.7847 60.9609 40.8314 61.0952 40.8752L62.0327 41.1556C62.5146 41.2987 62.8826 41.5148 63.1425 41.801C63.4083 42.0872 63.5397 42.4406 63.5397 42.8554C63.5397 43.2058 63.4463 43.5183 63.2594 43.7929C63.0724 44.0586 62.8154 44.266 62.4854 44.4179C62.1554 44.5697 61.7669 44.6427 61.323 44.6427V44.6457Z" fill="#203079"/>
<path d="M55.7947 44.6457C55.1697 44.6457 54.6235 44.4996 54.1592 44.2047C53.7006 43.9038 53.3852 43.4979 53.2129 42.9868L54.2672 42.4815C54.4191 42.8115 54.6265 43.0715 54.8922 43.2555C55.1638 43.4424 55.4676 43.5358 55.7976 43.5358C56.0546 43.5358 56.2591 43.4774 56.4109 43.3635C56.5628 43.2496 56.6358 43.0978 56.6358 42.9108C56.6358 42.7969 56.6037 42.7035 56.5394 42.6305C56.481 42.5516 56.3992 42.4874 56.2912 42.4377C56.1919 42.3793 56.0809 42.3326 55.9582 42.2975L55.0003 42.0288C54.5038 41.8857 54.13 41.6667 53.87 41.3717C53.6189 41.0767 53.4933 40.7292 53.4933 40.3261C53.4933 39.9669 53.5838 39.6544 53.762 39.3886C53.9489 39.117 54.203 38.9038 54.5272 38.7549C54.8572 38.603 55.2339 38.53 55.6574 38.53C56.2094 38.53 56.6971 38.6614 57.1206 38.9272C57.5441 39.1929 57.8449 39.5668 58.026 40.0458L56.9483 40.551C56.849 40.2852 56.6796 40.075 56.4431 39.9172C56.2065 39.7595 55.9407 39.6807 55.6457 39.6807C55.4092 39.6807 55.2223 39.7333 55.085 39.8413C54.9477 39.9494 54.8805 40.0896 54.8805 40.2619C54.8805 40.3699 54.9097 40.4634 54.9652 40.5423C55.0237 40.6211 55.1025 40.6854 55.2018 40.735C55.3099 40.7847 55.4325 40.8314 55.5669 40.8752L56.5044 41.1556C56.9863 41.2987 57.3543 41.5148 57.6142 41.801C57.88 42.0872 58.0114 42.4406 58.0114 42.8554C58.0114 43.2058 57.918 43.5183 57.731 43.7929C57.5441 44.0586 57.2871 44.266 56.9571 44.4179C56.6271 44.5697 56.2386 44.6427 55.7947 44.6427V44.6457Z" fill="#203079"/>
<path d="M49.7513 44.6456C49.1497 44.6456 48.6211 44.5083 48.1684 44.2367C47.7157 43.9651 47.3652 43.5942 47.1141 43.1269C46.8629 42.6596 46.7373 42.1426 46.7373 41.576C46.7373 41.0094 46.8629 40.4662 47.1141 40.0164C47.3711 39.5579 47.7215 39.1957 48.1596 38.93C48.6036 38.6642 49.1001 38.5328 49.6462 38.5328C50.1047 38.5328 50.5078 38.6087 50.8524 38.7577C51.2029 38.9095 51.5008 39.1169 51.7461 39.3827C51.9914 39.6484 52.1784 39.9522 52.3069 40.2968C52.4354 40.6327 52.4996 41.0007 52.4996 41.3949C52.4996 41.4942 52.4938 41.5994 52.4792 41.7075C52.4733 41.8155 52.4529 41.909 52.4266 41.9878H47.9055V40.9101H51.6322L50.9634 41.4154C51.0276 41.0854 51.0101 40.7904 50.9079 40.5334C50.8144 40.2764 50.6567 40.069 50.4348 39.9201C50.2186 39.7682 49.9587 39.6952 49.6491 39.6952C49.3395 39.6952 49.0942 39.7711 48.8635 39.9201C48.6328 40.0632 48.4575 40.2793 48.3349 40.5655C48.221 40.8459 48.1772 41.1876 48.2064 41.5877C48.1772 41.9469 48.2239 42.2653 48.3465 42.5457C48.4751 42.8173 48.662 43.0305 48.9073 43.1794C49.1585 43.3313 49.4447 43.4043 49.7689 43.4043C50.0931 43.4043 50.3647 43.3371 50.5866 43.1999C50.8174 43.0626 50.9955 42.8815 51.124 42.6508L52.266 43.2116C52.1521 43.4919 51.971 43.7402 51.7286 43.9534C51.4833 44.1695 51.1941 44.336 50.8553 44.4586C50.5253 44.5813 50.1602 44.6426 49.7572 44.6426L49.7513 44.6456Z" fill="#203079"/>
<path d="M40.5898 44.5172V38.6614H41.9129V39.8121L41.8048 39.6077C41.9421 39.2572 42.164 38.9914 42.4736 38.8103C42.789 38.6234 43.157 38.53 43.5718 38.53C43.9865 38.53 44.3837 38.6234 44.7137 38.8103C45.0525 38.9973 45.3124 39.2601 45.4993 39.596C45.6863 39.926 45.7797 40.3086 45.7797 40.7467V44.5142H44.3691V41.0796C44.3691 40.8226 44.3194 40.5977 44.2172 40.4108C44.1179 40.2239 43.9777 40.0808 43.7966 39.9815C43.6243 39.8734 43.4199 39.8209 43.1833 39.8209C42.9468 39.8209 42.7481 39.8734 42.57 39.9815C42.3889 40.0808 42.2516 40.2268 42.1494 40.4108C42.0501 40.5977 41.9976 40.8197 41.9976 41.0796V44.5142H40.5869L40.5898 44.5172Z" fill="#203079"/>
<path d="M37.8789 44.5175V38.6618H39.2895V44.5175H37.8789ZM37.8789 38.0046V36.4976H39.2895V38.0046H37.8789Z" fill="#203079"/>
<path d="M34.5769 44.6457C33.9519 44.6457 33.4058 44.4996 32.9414 44.2047C32.4829 43.9038 32.1674 43.4979 31.9951 42.9868L33.0494 42.4815C33.2013 42.8115 33.4087 43.0715 33.6745 43.2555C33.9461 43.4424 34.2498 43.5358 34.5798 43.5358C34.8368 43.5358 35.0442 43.4774 35.1932 43.3635C35.345 43.2496 35.418 43.0978 35.418 42.9108C35.418 42.7969 35.3859 42.7035 35.3217 42.6305C35.2633 42.5516 35.1815 42.4874 35.0734 42.4377C34.9741 42.3793 34.8602 42.3326 34.7405 42.2975L33.7825 42.0288C33.286 41.8857 32.9093 41.6667 32.6522 41.3717C32.4011 41.0767 32.2755 40.7292 32.2755 40.3261C32.2755 39.9669 32.366 39.6544 32.5442 39.3886C32.7311 39.117 32.9852 38.9038 33.3094 38.7549C33.6394 38.603 34.0162 38.53 34.4396 38.53C34.9916 38.53 35.4794 38.6614 35.9029 38.9272C36.3263 39.1929 36.6272 39.5668 36.8082 40.0458L35.7305 40.551C35.6312 40.2852 35.4618 40.075 35.2253 39.9172C34.9887 39.7595 34.7229 39.6807 34.428 39.6807C34.1914 39.6807 34.0045 39.7333 33.8672 39.8413C33.7299 39.9494 33.6628 40.0896 33.6628 40.2619C33.6628 40.3699 33.692 40.4634 33.7504 40.5423C33.8088 40.6211 33.8877 40.6854 33.987 40.735C34.095 40.7847 34.2177 40.8314 34.352 40.8752L35.2895 41.1556C35.7714 41.2987 36.1394 41.5148 36.3994 41.801C36.6651 42.0872 36.7966 42.4406 36.7966 42.8554C36.7966 43.2058 36.7031 43.5183 36.5162 43.7929C36.3293 44.0586 36.0723 44.266 35.7422 44.4179C35.4122 44.5697 35.0238 44.6427 34.5798 44.6427L34.5769 44.6457Z" fill="#203079"/>
<path d="M28.0546 44.6457C27.602 44.6457 27.2077 44.5464 26.8689 44.3449C26.5389 44.1434 26.2848 43.863 26.1037 43.5037C25.9314 43.1445 25.8467 42.724 25.8467 42.245V38.6585H27.2573V42.1252C27.2573 42.3706 27.3041 42.5838 27.3975 42.7707C27.4968 42.9488 27.637 43.0949 27.8181 43.2C28.005 43.2993 28.2124 43.3519 28.4431 43.3519C28.6738 43.3519 28.8782 43.3022 29.0564 43.2C29.2346 43.0919 29.3747 42.9459 29.477 42.759C29.5763 42.5721 29.6288 42.3501 29.6288 42.0902V38.6556H31.0395V44.5114H29.7048V43.3606L29.8245 43.5651C29.6872 43.9243 29.4624 44.193 29.1469 44.3741C28.8374 44.5522 28.4752 44.6428 28.0605 44.6428L28.0546 44.6457Z" fill="#203079"/>
<path d="M18.6387 44.5175V36.4976H22.0207C22.5523 36.4976 23.0049 36.5911 23.3759 36.778C23.7555 36.9562 24.0476 37.2161 24.2491 37.552C24.4565 37.882 24.5616 38.285 24.5616 38.7582C24.5616 39.1232 24.4623 39.4679 24.2608 39.792C24.068 40.1075 23.7555 40.3703 23.3233 40.5777V39.9001C23.7176 40.052 24.0301 40.236 24.2608 40.4609C24.4915 40.6828 24.6522 40.9311 24.7456 41.2027C24.8391 41.4743 24.8858 41.7634 24.8858 42.0643C24.8858 42.8324 24.6317 43.434 24.1206 43.8721C23.6183 44.3014 22.9173 44.5175 22.0207 44.5175H18.6387ZM20.1048 43.2266H22.1726C22.5523 43.2266 22.8531 43.1215 23.078 42.9141C23.3087 42.698 23.4226 42.4147 23.4226 42.0643C23.4226 41.7138 23.3087 41.4305 23.078 41.2144C22.856 40.9982 22.5552 40.8902 22.1726 40.8902H20.1048V43.2266ZM20.1048 39.608H22.0966C22.3975 39.608 22.6399 39.5204 22.818 39.351C22.9962 39.17 23.0867 38.9421 23.0867 38.6618C23.0867 38.3814 22.9962 38.1594 22.818 37.993C22.6399 37.8265 22.3975 37.7447 22.0966 37.7447H20.1048V39.608Z" fill="#203079"/>
<path d="M53.0403 32.3766C52.4153 32.3766 51.8691 32.2305 51.4048 31.9356C50.9462 31.6347 50.6308 31.2288 50.4585 30.7177L51.5128 30.2124C51.6647 30.5424 51.8721 30.8024 52.1378 30.9864C52.4094 31.1733 52.7132 31.2667 53.0432 31.2667C53.3002 31.2667 53.5047 31.2083 53.6565 31.0944C53.8084 30.9805 53.8814 30.8287 53.8814 30.6417C53.8814 30.5278 53.8493 30.4344 53.785 30.3614C53.7266 30.2825 53.6449 30.2183 53.5368 30.1686C53.4375 30.1102 53.3265 30.0635 53.2038 30.0284L52.2459 29.7597C51.7494 29.6166 51.3756 29.3976 51.1156 29.1026C50.8645 28.8076 50.7389 28.4601 50.7389 28.057C50.7389 27.6978 50.8294 27.3853 51.0076 27.1195C51.1945 26.8479 51.4486 26.6347 51.7728 26.4858C52.1028 26.3339 52.4795 26.2609 52.903 26.2609C53.455 26.2609 53.9428 26.3923 54.3662 26.6581C54.7897 26.9238 55.0905 27.2977 55.2716 27.7766L54.1939 28.2819C54.0946 28.0161 53.9252 27.8059 53.6887 27.6481C53.4521 27.4904 53.1863 27.4116 52.8913 27.4116C52.6548 27.4116 52.4679 27.4641 52.3306 27.5722C52.1933 27.6803 52.1262 27.8205 52.1262 27.9928C52.1262 28.1008 52.1554 28.1943 52.2108 28.2731C52.2693 28.352 52.3481 28.4163 52.4474 28.4659C52.5555 28.5156 52.6781 28.5623 52.8125 28.6061L53.75 28.8865C54.2319 29.0296 54.5999 29.2457 54.8598 29.5319C55.1256 29.8181 55.257 30.1715 55.257 30.5862C55.257 30.9367 55.1636 31.2492 54.9766 31.5238C54.7897 31.7895 54.5327 31.9969 54.2027 32.1488C53.8727 32.3006 53.4842 32.3736 53.0403 32.3736V32.3766Z" fill="#203079"/>
<path d="M46.5151 32.3768C46.0624 32.3768 45.6681 32.2775 45.3323 32.076C45.0022 31.8745 44.7481 31.5941 44.5671 31.2378C44.3948 30.8785 44.3101 30.458 44.3101 29.979V26.3925H45.7207V29.8592C45.7207 30.1046 45.7674 30.3178 45.8609 30.5047C45.9602 30.6858 46.1004 30.8289 46.2815 30.9369C46.4684 31.0362 46.6757 31.0888 46.9065 31.0888C47.1372 31.0888 47.3416 31.0392 47.5198 30.9369C47.6979 30.8289 47.8381 30.6829 47.9403 30.4959C48.0396 30.309 48.0922 30.0871 48.0922 29.8271V26.3925H49.5029V32.2483H48.1682V31.0976L48.2879 31.302C48.1506 31.6613 47.9257 31.9299 47.6103 32.1081C47.3007 32.2892 46.9386 32.3768 46.5239 32.3768H46.5151Z" fill="#203079"/>
<path d="M40.4023 32.2478V26.3921H41.7254V27.6947L41.6173 27.5019C41.7546 27.0638 41.9649 26.7601 42.254 26.5878C42.549 26.4154 42.8994 26.3278 43.3083 26.3278H43.653V27.5778H43.1477C42.7447 27.5778 42.4234 27.7034 42.1781 27.9546C41.9327 28.1999 41.813 28.5445 41.813 28.9885V32.2508H40.4023V32.2478Z" fill="#203079"/>
<path d="M33.1689 34.4006V26.3895H34.4919V27.5519L34.3634 27.2598C34.565 26.9444 34.8366 26.6991 35.1812 26.5268C35.5258 26.3486 35.923 26.2581 36.3757 26.2581C36.9277 26.2581 37.4271 26.3953 37.8711 26.6669C38.315 26.9386 38.6684 27.3065 38.9254 27.7651C39.1912 28.2236 39.3226 28.7406 39.3226 29.3159C39.3226 29.8913 39.1941 30.3994 38.9342 30.8667C38.6771 31.334 38.3238 31.702 37.8798 31.9766C37.4359 32.2423 36.9277 32.3738 36.3611 32.3738C35.9376 32.3738 35.5463 32.292 35.187 32.1255C34.8366 31.9532 34.5562 31.7079 34.3459 31.3924L34.5708 31.1121V34.3948H33.1602L33.1689 34.4006ZM36.2034 31.0858C36.5276 31.0858 36.8138 31.0098 37.065 30.8609C37.3161 30.709 37.5089 30.5017 37.6462 30.2359C37.7893 29.9701 37.8623 29.6664 37.8623 29.3218C37.8623 28.9771 37.7922 28.6763 37.6462 28.4164C37.5089 28.1506 37.3161 27.9432 37.065 27.7914C36.8138 27.6337 36.5276 27.5548 36.2034 27.5548C35.8792 27.5548 35.6134 27.6307 35.3623 27.7797C35.1169 27.9316 34.9242 28.1418 34.7811 28.4134C34.6438 28.6792 34.5766 28.98 34.5766 29.3188C34.5766 29.6576 34.6438 29.9672 34.7811 30.233C34.9242 30.4987 35.1199 30.7061 35.3623 30.858C35.6134 31.0098 35.8938 31.0829 36.2034 31.0829V31.0858Z" fill="#203079"/>
<path d="M27.5698 34.6165C27.4121 34.6165 27.2573 34.6019 27.1055 34.5727C26.9536 34.5523 26.8192 34.5084 26.6966 34.4442V33.2701C26.79 33.2906 26.901 33.3139 27.0295 33.3344C27.1668 33.3548 27.2924 33.3665 27.4063 33.3665C27.7305 33.3665 27.9612 33.2906 28.1072 33.1416C28.2591 32.9985 28.3905 32.8057 28.5044 32.5604L28.8929 31.655L28.8724 32.8379L26.3198 26.3892H27.8385L29.6259 31.1469H29.0885L30.8643 26.3892H32.3917L29.8391 32.8379C29.6873 33.2117 29.5062 33.53 29.2901 33.7958C29.0739 34.0616 28.8228 34.2631 28.5365 34.3975C28.2562 34.5406 27.9349 34.6136 27.5669 34.6136L27.5698 34.6165Z" fill="#203079"/>
<path d="M22.4094 32.3769C21.834 32.3769 21.3054 32.2718 20.8147 32.0644C20.3329 31.857 19.9094 31.565 19.5443 31.1911C19.1851 30.8173 18.9047 30.3792 18.7032 29.8769C18.5016 29.3745 18.4023 28.8255 18.4023 28.2297C18.4023 27.6339 18.4987 27.0848 18.6944 26.5825C18.8959 26.0743 19.1763 25.6362 19.5355 25.2682C19.9006 24.8944 20.3299 24.6081 20.8177 24.4066C21.3054 24.1993 21.8369 24.0941 22.4123 24.0941C22.9877 24.0941 23.4988 24.1905 23.9515 24.3862C24.41 24.5789 24.7984 24.8389 25.1138 25.1601C25.4293 25.4756 25.6571 25.8231 25.7914 26.2057L24.4772 26.819C24.3253 26.416 24.0712 26.086 23.712 25.8289C23.3527 25.5632 22.9176 25.4317 22.4094 25.4317C21.9012 25.4317 21.4631 25.5515 21.0747 25.7881C20.695 26.0246 20.3971 26.3517 20.181 26.7665C19.9736 27.1841 19.8685 27.6718 19.8685 28.2297C19.8685 28.7875 19.9736 29.2811 20.181 29.7046C20.3971 30.1222 20.695 30.4464 21.0747 30.683C21.4631 30.9195 21.907 31.0393 22.4094 31.0393C22.9117 31.0393 23.3527 30.9108 23.712 30.6508C24.0712 30.3851 24.3253 30.0521 24.4772 29.6491L25.7914 30.2624C25.6542 30.6421 25.4293 30.9955 25.1138 31.3167C24.7984 31.6321 24.41 31.8862 23.9515 32.0819C23.4988 32.2747 22.9847 32.374 22.4123 32.374L22.4094 32.3769Z" fill="#203079"/>
<path d="M74.2109 33.6586C74.1303 32.9382 74.0262 32.2243 73.8967 31.5096C72.7481 25.0834 69.5293 18.9512 64.8356 14.2761C60.1605 9.58235 54.0283 6.36357 47.6021 5.21497C46.8873 5.08551 46.1735 4.98138 45.4531 4.90076C46.1552 5.08091 46.8457 5.27847 47.533 5.49494C53.7084 7.43811 59.2747 10.8586 63.7624 15.3493C68.253 19.837 71.6736 25.4032 73.6167 31.5787C73.8332 32.2659 74.0308 32.9564 74.2109 33.6586Z" fill="url(#paint0_linear_4306_21659)"/>
<path d="M3.69238 46.6647C3.77301 47.3851 3.87714 48.0989 4.0066 48.8137C5.1552 55.2399 8.37397 61.3721 13.0677 66.0472C17.7428 70.7409 23.875 73.9597 30.3012 75.1083C31.016 75.2378 31.7298 75.3419 32.4502 75.4225C31.7481 75.2424 31.0576 75.0448 30.3703 74.8284C24.1949 72.8852 18.6287 69.4647 14.1409 64.974C9.65026 60.4863 6.22974 54.9201 4.28657 48.7446C4.07009 48.0573 3.87253 47.3669 3.69238 46.6647Z" fill="url(#paint1_linear_4306_21659)"/>
<path d="M75.4131 40.2192C75.388 41.0406 75.3293 41.8623 75.2402 42.6782V42.686L75.2324 42.77L75.2295 42.7787C75.185 43.1879 75.1296 43.5971 75.0684 44.0063L76.418 46.3618C77.4538 47.3614 78.168 49.6057 77.0098 52.3901C75.5898 50.1069 76.4187 48.897 76.0957 46.27L75.0625 44.0229C74.9786 44.5829 74.8765 45.14 74.7637 45.6948C74.8334 45.956 74.9949 46.5716 74.9883 46.7123C76.3461 49.8452 75.1506 51.325 74.6621 52.5014C74.0495 51.1122 73.8798 48.2321 74.8799 46.6118L74.709 45.977C74.2963 47.9206 73.7085 49.8272 72.9629 51.6694C72.9936 52.2706 73.2918 52.5383 73.4561 52.8334C74.3554 52.9895 75.7423 53.9308 76.1562 55.9233C74.0822 55.7645 73.3281 54.9606 73.3281 53.0053L72.8652 52.1782C72.8652 52.1782 72.5816 53.2588 72.498 54.0551C73.1385 55.4418 72.9796 60.8522 72.4004 63.6C71.2282 60.8523 70.3698 58.0035 72.4004 53.8217C72.4004 53.8217 72.4753 53.5902 72.6562 52.3901C72.4781 52.7993 72.2976 53.206 72.1055 53.6069C71.2674 55.3694 70.2869 57.0624 69.1982 58.6801L68.6621 59.5209C68.6621 59.5209 68.4724 60.4699 68.6621 62.0825C69.1982 64.0745 69.1895 67.5067 67.5078 69.3862C67.8228 65.3825 66.6609 64.1179 68.3779 62.1772C68.3779 62.1772 68.4727 60.9437 68.3242 60.0082H68.2627C67.1314 61.5531 65.9004 63.0252 64.5889 64.4194C64.6163 64.9665 64.6577 65.8559 64.6328 66.0834C66.0225 70.968 64.7309 70.7655 63.6895 72.937C62.7204 70.3413 64.0286 68.5215 64.5674 65.8725L64.5146 64.4985C64.3851 64.6356 64.2562 64.774 64.125 64.9096C63.713 65.3244 63.2921 65.7304 62.8662 66.1313C62.7075 66.8413 62.1386 67.7491 62.0996 68.1557C62.0996 73.084 59.5539 74.6169 58.376 74.8305C58.9913 70.0358 61.4403 69.4952 61.9443 68.0668L62.8252 66.1703C60.8928 67.9747 58.8125 69.6235 56.585 71.0463C56.4959 71.4445 56.3428 72.1708 56.3428 72.5161C56.8404 75.9576 54.9579 77.1328 53.792 77.4028C54.0663 73.9033 55.7631 73.5046 56.1641 72.4799L56.5713 71.0571C55.4102 71.7977 54.2098 72.4802 52.9707 73.0844C51.4059 73.8473 49.7799 74.4879 48.1094 74.978L46.7109 75.6713C45.6028 76.7739 44.0798 78.5 41.3516 80.0004C41.7227 77.4029 44.041 76.1635 46.7334 75.4536L47.6162 75.1137C47.2265 75.2195 46.8367 75.3234 46.4414 75.4125C45.027 75.7383 43.5845 75.9463 42.1367 76.0327L41.96 76.0629L37.7695 76.8266L33.5801 77.5893C36.313 74.293 40.4735 75.1138 41.9023 75.9575C43.4227 75.8433 44.9292 75.5962 46.3994 75.2231C47.5158 74.953 48.6127 74.6103 49.6846 74.2094L47.666 74.2924C44.2607 74.8131 41.1077 74.5372 39.3184 71.7866C42.8935 72.3351 45.5458 72.8228 47.5322 74.059L49.7764 74.1733C50.8233 73.7779 51.8459 73.3267 52.8428 72.8227C55.4962 71.489 57.977 69.8294 60.2686 67.9389C58.6313 68.6656 56.1641 69.3862 56.1641 69.3862C54.5282 71.43 51.3382 71.9976 47.6611 71.4301C50.7345 70.2399 53.7925 68.9256 55.7666 69.0659C57.6013 69.0072 59.8893 67.9774 60.6914 67.5903C60.7415 67.5485 60.7897 67.5041 60.8398 67.4623C59.5367 67.6294 57.5635 67.7739 57.5635 67.7739C56.3301 68.0668 53.7692 68.3315 52.4414 67.3315C55.2258 67.0276 56.6271 66.7323 57.3789 67.1528C58.0888 67.5537 60.0537 67.4957 60.9922 67.3315C61.6826 66.7357 62.3594 66.1176 63.0137 65.4828L63.0391 65.3911L63.0479 65.3823C63.0423 65.41 63.0366 65.4407 63.0283 65.4711C63.3066 65.2012 63.5827 64.9283 63.8555 64.6528C65.2281 63.2523 66.514 61.7623 67.6973 60.1948L65.4971 61.7338C63.2372 63.4476 58.2703 65.8321 56.7441 65.9047C58.7972 64.0744 59.4801 62.1794 65.2383 61.7504C65.4362 61.6556 66.9656 60.4459 67.7285 60.1508C67.7591 60.1063 67.7926 60.0646 67.8232 60.0229L65.8672 60.4047C64.3071 60.7301 63.5393 61.9392 58.9863 61.7338C60.6914 60.9442 63.0477 59.1413 65.8203 60.2455C66.1991 60.315 67.3138 59.9782 67.8428 60.0004C68.9108 58.5698 69.8884 57.0719 70.7666 55.518C70.3848 55.8598 69.9095 56.2827 69.7979 56.3618C68.104 58.8343 65.4181 58.8275 63.6631 58.7621C63.6686 58.7465 63.6767 58.7318 63.6836 58.7162C63.682 58.7162 63.6803 58.7163 63.6787 58.7162C64.0756 57.5981 67.9875 56.8264 69.7783 56.1264L70.8799 55.3168C71.215 54.7159 71.5373 54.1073 71.8408 53.4897C72.2306 52.699 72.6344 51.7996 72.9629 50.9838L71.4131 52.5239C69.5747 55.596 67.9785 55.4362 65.0576 55.2524C67.9256 53.2253 69.4493 53.2785 71.2285 52.5239L73.1201 50.6049L74.2656 47.0414C74.6443 45.6576 74.932 44.2485 75.127 42.8256H75.1182L73.5029 44.5825C72.1051 47.8556 69.1984 51.0818 66.748 52.1733C67.4107 49.9764 68.5701 47.0414 73.2939 44.683C73.4554 44.4882 74.5745 43.3553 75.0898 42.8344L75.1094 42.812L75.127 42.7953C75.2439 41.9405 75.3267 41.0796 75.374 40.2192H75.4131ZM56.5059 71.1323C56.2673 71.4118 54.9289 72.9765 54.6855 73.1616C52.1489 77.2102 49.0943 78.6836 46.8027 79.4243C47.6983 76.6902 52.5033 74.4041 54.7949 72.9702L56.5059 71.1323ZM56.5059 71.1323C56.5291 71.105 56.5427 71.0906 56.543 71.0903H56.5459L56.5059 71.1323Z" fill="url(#paint2_linear_4306_21659)"/>
<path d="M2.52295 39.7822C2.54801 38.961 2.60673 38.1398 2.6958 37.3242L2.6958 37.3154L2.70459 37.2314L2.70654 37.2236C2.75109 36.8143 2.8074 36.4044 2.86865 35.9951L1.51807 33.6396C0.482289 32.6399 -0.232032 30.3956 0.926271 27.6113C2.34628 29.8944 1.51842 31.1046 1.84131 33.7314L2.87354 35.9785C2.9576 35.4174 3.06029 34.8595 3.17334 34.3036C3.10313 34.0406 2.94313 33.4292 2.94971 33.289C1.59222 30.1566 2.7873 28.6772 3.27588 27.5009C3.88833 28.8903 4.05803 31.7694 3.05811 33.3896L3.229 34.0224C3.64167 32.0798 4.2279 30.1742 4.97315 28.3329C4.94253 27.7316 4.64527 27.4639 4.48096 27.1689C3.58159 27.013 2.19362 26.0711 1.77979 24.0781C3.85407 24.2368 4.60885 25.0407 4.60889 26.996L5.0708 27.8232C5.0708 27.8232 5.35446 26.7426 5.43799 25.9462C4.79775 24.559 4.95653 19.1489 5.53565 16.4013C6.7079 19.1491 7.56643 21.9987 5.53565 26.1806C5.53246 26.1907 5.45685 26.4372 5.27979 27.6113C5.45796 27.202 5.63848 26.7953 5.83057 26.3945C6.66868 24.6319 7.64908 22.939 8.73779 21.3212L9.27393 20.4804C9.27713 20.4642 9.46194 19.5183 9.27393 17.9199C8.73783 15.9278 8.74641 12.4947 10.4282 10.6152C10.1132 14.619 11.2762 15.8844 9.55908 17.8251C9.55705 17.8519 9.46595 19.068 9.61279 19.9931L9.67334 19.9931C10.805 18.4476 12.0361 16.9747 13.3481 15.58C13.3207 15.0324 13.2802 14.1444 13.3052 13.9179C11.9156 9.03365 13.2061 9.23643 14.2476 7.06537C15.2164 9.66085 13.9084 11.48 13.3696 14.1288L13.4224 15.5019C13.5516 15.3651 13.6803 15.2279 13.811 15.0927C14.2231 14.6778 14.6438 14.271 15.0698 13.8701C15.2286 13.16 15.7974 12.2521 15.8364 11.8456C15.8365 6.91742 18.3832 5.3853 19.561 5.17181C18.9457 9.96653 16.4967 10.5071 15.9927 11.9355L15.1118 13.831C17.0442 12.0268 19.1246 10.3788 21.3521 8.95599C21.4412 8.55782 21.5942 7.83056 21.5942 7.48529C21.0967 4.0441 22.9782 2.86862 24.144 2.59857C23.8698 6.09795 22.1731 6.49692 21.772 7.52142L21.3657 8.94427C22.5266 8.20379 23.7266 7.52202 24.9653 6.91791C26.5302 6.15497 28.157 5.51441 29.8276 5.02435L31.2251 4.33099C32.3333 3.22835 33.8566 1.50156 36.5855 0.000914848C36.2145 2.5988 33.8952 3.83776 31.2026 4.54779L30.3198 4.88763C30.7097 4.78182 31.1002 4.67889 31.4956 4.58978C32.91 4.26403 34.3525 4.055 35.8003 3.96869L35.9771 3.93939L40.1665 3.17572L44.3569 2.41205C41.6238 5.70884 37.4624 4.88757 36.0337 4.04388C34.5135 4.15806 33.0067 4.40614 31.5366 4.77923C30.4202 5.0493 29.3233 5.392 28.2515 5.79291L30.27 5.70892C33.6753 5.18825 36.8283 5.46442 38.6177 8.21478C35.0427 7.66628 32.3901 7.17949 30.4038 5.9433L28.1597 5.82904C27.1128 6.22441 26.091 6.67567 25.0942 7.17962C22.4407 8.51338 19.9591 10.1728 17.6675 12.0634C19.3047 11.3367 21.772 10.6152 21.772 10.6152C23.4079 8.57128 26.5987 8.0036 30.2759 8.57123C27.2025 9.76148 24.1446 11.0757 22.1704 10.9355C20.3356 10.994 18.0467 12.024 17.2446 12.4111C17.1946 12.4528 17.1472 12.4973 17.0972 12.539C18.4003 12.3719 20.3726 12.2285 20.3726 12.2285C21.6056 11.9355 24.1666 11.67 25.4946 12.6699C22.7106 12.9737 21.31 13.2688 20.5581 12.8486C19.8481 12.4476 17.8822 12.5056 16.9439 12.6699C16.2533 13.2657 15.5767 13.8846 14.9224 14.5195L14.897 14.6113L14.8892 14.6191C14.8947 14.5913 14.9004 14.5607 14.9087 14.5302C14.6303 14.8002 14.3544 15.073 14.0815 15.3486C12.7088 16.7491 11.4222 18.2389 10.2388 19.8066L12.439 18.2685C14.6988 16.5547 19.667 14.169 21.1929 14.0966C19.1397 15.927 18.4566 17.8228 12.6987 18.2519C12.5011 18.3466 10.9715 19.5562 10.2085 19.8515C10.1779 19.896 10.1444 19.9377 10.1138 19.9794L12.0688 19.5976C13.6291 19.2723 14.3965 18.0631 18.9497 18.2685C17.2447 19.0581 14.8891 20.8598 12.1167 19.7558C11.7381 19.6862 10.6234 20.0241 10.0942 20.0019C9.02589 21.4329 8.04777 22.9309 7.16943 24.4853C7.5516 24.1431 8.02783 23.7183 8.13916 23.6396C9.83318 21.1672 12.519 21.1738 14.2739 21.2392C14.2684 21.2547 14.2603 21.2697 14.2534 21.2851C14.2555 21.2852 14.2581 21.285 14.2603 21.2851C13.8635 22.4032 9.95167 23.174 8.16065 23.874L7.05518 24.6865C6.72041 25.2869 6.39848 25.8946 6.09522 26.5117C5.70544 27.3023 5.30168 28.2018 4.97315 29.0175L6.52295 27.4775C8.36122 24.4056 9.95777 24.5652 12.8784 24.749C10.0107 26.7758 8.48757 26.7231 6.7085 27.4775L4.81592 29.3974L3.67041 32.9609C3.29181 34.3445 3.00495 35.7531 2.81006 37.1757L2.81787 37.1757L4.43311 35.4189C5.83084 32.1459 8.73779 28.9207 11.188 27.829C10.5253 30.0259 9.36593 32.961 4.64209 35.3193C4.47991 35.5148 3.36111 36.6474 2.84619 37.1679L2.82666 37.1904L2.81006 37.207C2.69313 38.0617 2.60935 38.9219 2.56201 39.7822L2.52295 39.7822ZM21.4302 8.86908C21.6689 8.5894 23.0071 7.02489 23.2505 6.83978C25.7871 2.79119 28.8417 1.31775 31.1333 0.577086C30.2377 3.31117 25.4337 5.59817 23.1421 7.03216L21.4302 8.86908ZM21.4302 8.86908C21.4076 8.89558 21.3941 8.9099 21.3931 8.91107L21.3901 8.91107L21.4302 8.86908Z" fill="url(#paint3_linear_4306_21659)"/>
<defs>
<linearGradient id="paint0_linear_4306_21659" x1="45.4305" y1="4.91794" x2="74.0609" y2="33.5483" gradientUnits="userSpaceOnUse">
<stop stop-color="#FFA730" stop-opacity="0"/>
<stop offset="0.25" stop-color="#FFA730" stop-opacity="0.4"/>
<stop offset="0.5" stop-color="#F49843"/>
<stop offset="0.75" stop-color="#FFA730" stop-opacity="0.8"/>
<stop offset="1" stop-color="#FFA730" stop-opacity="0"/>
</linearGradient>
<linearGradient id="paint1_linear_4306_21659" x1="3.66975" y1="46.6819" x2="32.3002" y2="75.3123" gradientUnits="userSpaceOnUse">
<stop stop-color="#FFA730" stop-opacity="0"/>
<stop offset="0.25" stop-color="#FFA730" stop-opacity="0.4"/>
<stop offset="0.5" stop-color="#F49843"/>
<stop offset="0.75" stop-color="#FFA730" stop-opacity="0.8"/>
<stop offset="1" stop-color="#FFA730" stop-opacity="0"/>
</linearGradient>
<linearGradient id="paint2_linear_4306_21659" x1="39.6148" y1="77.0599" x2="52.624" y2="49.7029" gradientUnits="userSpaceOnUse">
<stop stop-color="#C2C756"/>
<stop offset="1" stop-color="#696D2C"/>
</linearGradient>
<linearGradient id="paint3_linear_4306_21659" x1="38.322" y1="2.94149" x2="27.5643" y2="28.6371" gradientUnits="userSpaceOnUse">
<stop stop-color="#C2C756"/>
<stop offset="1" stop-color="#696D2C"/>
</linearGradient>
</defs>
</svg>
